HIERARCHY
ROOT mixamorig:Hips
{
	OFFSET 0.000000 201.639420 0.000000
	CHANNELS 6 Xposition Yposition Zposition Xrotation Yrotation Zrotation
	JOINT mixamorig:Spine
	{
		OFFSET 0.006200 19.524994 -2.481800
		CHANNELS 3 Xrotation Yrotation Zrotation
		JOINT mixamorig:Spine1
		{
			OFFSET -0.000900 22.835007 -2.825400
			CHANNELS 3 Xrotation Yrotation Zrotation
			JOINT mixamorig:Spine2
			{
				OFFSET -0.020600 26.552490 -3.193300
				CHANNELS 3 Xrotation Yrotation Zrotation
				JOINT mixamorig:Neck
				{
					OFFSET -0.060000 30.701813 1.352200
					CHANNELS 3 Xrotation Yrotation Zrotation
					JOINT mixamorig:Head
					{
						OFFSET -0.087200 22.547607 3.670900
						CHANNELS 3 Xrotation Yrotation Zrotation
						JOINT mixamorig:HeadTop_End
						{
							OFFSET -0.830600 40.355194 7.893500
							CHANNELS 3 Xrotation Yrotation Zrotation
							End Site
							{
								OFFSET 0.000000 30.592346 0.000000
							}
						}
						JOINT mixamorig:RightEye
						{
							OFFSET -6.302100 18.118591 16.197100
							CHANNELS 3 Xrotation Yrotation Zrotation
							End Site
							{
								OFFSET 0.000000 30.592346 0.000000
							}
						}
						JOINT mixamorig:LeftEye
						{
							OFFSET 6.741500 18.382690 16.401899
							CHANNELS 3 Xrotation Yrotation Zrotation
							End Site
							{
								OFFSET 0.000000 30.592346 0.000000
							}
						}
					}
				}
				JOINT mixamorig:LeftShoulder
				{
					OFFSET 11.924900 18.230499 1.425400
					CHANNELS 3 Xrotation Yrotation Zrotation
					JOINT mixamorig:LeftArm
					{
						OFFSET 25.435989 -0.697632 -5.229300
						CHANNELS 3 Xrotation Yrotation Zrotation
						JOINT mixamorig:LeftForeArm
						{
							OFFSET 54.684776 0.000000 0.000000
							CHANNELS 3 Xrotation Yrotation Zrotation
							JOINT mixamorig:LeftHand
							{
								OFFSET 55.098175 0.000000 0.000000
								CHANNELS 3 Xrotation Yrotation Zrotation
								JOINT mixamorig:LeftHandMiddle1
								{
									OFFSET 23.369751 0.000000 0.000000
									CHANNELS 3 Xrotation Yrotation Zrotation
									JOINT mixamorig:LeftHandMiddle2
									{
										OFFSET 6.378677 0.000000 0.000000
										CHANNELS 3 Xrotation Yrotation Zrotation
										JOINT mixamorig:LeftHandMiddle3
										{
											OFFSET 6.148331 0.000000 0.000000
											CHANNELS 3 Xrotation Yrotation Zrotation
											JOINT mixamorig:LeftHandMiddle4
											{
												OFFSET 6.582504 0.000000 0.000000
												CHANNELS 3 Xrotation Yrotation Zrotation
												End Site
												{
													OFFSET -1.168900 6.395691 1.028606
												}
											}
										}
									}
								}
								JOINT mixamorig:LeftHandThumb1
								{
									OFFSET 7.235672 -3.848206 5.434273
									CHANNELS 3 Xrotation Yrotation Zrotation
									JOINT mixamorig:LeftHandThumb2
									{
										OFFSET 6.568451 -3.792297 3.792300
										CHANNELS 3 Xrotation Yrotation Zrotation
										JOINT mixamorig:LeftHandThumb3
										{
											OFFSET 6.063080 -3.500519 3.500518
											CHANNELS 3 Xrotation Yrotation Zrotation
											JOINT mixamorig:LeftHandThumb4
											{
												OFFSET 4.793182 -2.767334 2.767349
												CHANNELS 3 Xrotation Yrotation Zrotation
												End Site
												{
													OFFSET 0.101639 6.054260 1.275483
												}
											}
										}
									}
								}
								JOINT mixamorig:LeftHandIndex1
								{
									OFFSET 23.101074 -0.309540 4.992809
									CHANNELS 3 Xrotation Yrotation Zrotation
									JOINT mixamorig:LeftHandIndex2
									{
										OFFSET 6.226883 0.000000 0.000000
										CHANNELS 3 Xrotation Yrotation Zrotation
										JOINT mixamorig:LeftHandIndex3
										{
											OFFSET 6.094330 0.000000 0.000000
											CHANNELS 3 Xrotation Yrotation Zrotation
											JOINT mixamorig:LeftHandIndex4
											{
												OFFSET 5.482605 0.000000 0.000000
												CHANNELS 3 Xrotation Yrotation Zrotation
												End Site
												{
													OFFSET -1.427902 5.233032 0.797164
												}
											}
										}
									}
								}
								JOINT mixamorig:LeftHandRing1
								{
									OFFSET 22.299240 0.021149 -3.964172
									CHANNELS 3 Xrotation Yrotation Zrotation
									JOINT mixamorig:LeftHandRing2
									{
										OFFSET 6.321869 0.000000 0.000000
										CHANNELS 3 Xrotation Yrotation Zrotation
										JOINT mixamorig:LeftHandRing3
										{
											OFFSET 5.899796 0.000000 0.000000
											CHANNELS 3 Xrotation Yrotation Zrotation
											JOINT mixamorig:LeftHandRing4
											{
												OFFSET 6.517899 0.000000 0.000000
												CHANNELS 3 Xrotation Yrotation Zrotation
												End Site
												{
													OFFSET -1.637299 6.232208 0.980890
												}
											}
										}
									}
								}
								JOINT mixamorig:LeftHandPinky1
								{
									OFFSET 20.463791 -0.302338 -8.562233
									CHANNELS 3 Xrotation Yrotation Zrotation
									JOINT mixamorig:LeftHandPinky2
									{
										OFFSET 6.908646 0.000000 0.000000
										CHANNELS 3 Xrotation Yrotation Zrotation
										JOINT mixamorig:LeftHandPinky3
										{
											OFFSET 4.622849 0.000000 0.000000
											CHANNELS 3 Xrotation Yrotation Zrotation
											JOINT mixamorig:LeftHandPinky4
											{
												OFFSET 5.216080 0.000000 0.000000
												CHANNELS 3 Xrotation Yrotation Zrotation
												End Site
												{
													OFFSET -0.606308 5.116241 0.814926
												}
											}
										}
									}
								}
							}
						}
					}
				}
				JOINT mixamorig:RightShoulder
				{
					OFFSET -12.001300 18.284088 1.348900
					CHANNELS 3 Xrotation Yrotation Zrotation
					JOINT mixamorig:RightArm
					{
						OFFSET -25.308500 -0.751312 -5.164599
						CHANNELS 3 Xrotation Yrotation Zrotation
						JOINT mixamorig:RightForeArm
						{
							OFFSET -54.684429 0.000000 0.000000
							CHANNELS 3 Xrotation Yrotation Zrotation
							JOINT mixamorig:RightHand
							{
								OFFSET -55.150291 0.000000 0.000000
								CHANNELS 3 Xrotation Yrotation Zrotation
								JOINT mixamorig:RightHandMiddle1
								{
									OFFSET -23.317566 0.000000 0.000000
									CHANNELS 3 Xrotation Yrotation Zrotation
									JOINT mixamorig:RightHandMiddle2
									{
										OFFSET -6.378403 0.000000 0.000000
										CHANNELS 3 Xrotation Yrotation Zrotation
										JOINT mixamorig:RightHandMiddle3
										{
											OFFSET -6.148193 0.000000 0.000000
											CHANNELS 3 Xrotation Yrotation Zrotation
											JOINT mixamorig:RightHandMiddle4
											{
												OFFSET -6.583389 0.000000 0.000000
												CHANNELS 3 Xrotation Yrotation Zrotation
												End Site
												{
													OFFSET 1.171692 6.395905 1.029786
												}
											}
										}
									}
								}
								JOINT mixamorig:RightHandThumb1
								{
									OFFSET -7.190521 -3.860474 5.435846
									CHANNELS 3 Xrotation Yrotation Zrotation
									JOINT mixamorig:RightHandThumb2
									{
										OFFSET -6.567429 -3.791718 3.791708
										CHANNELS 3 Xrotation Yrotation Zrotation
										JOINT mixamorig:RightHandThumb3
										{
											OFFSET -6.062469 -3.500153 3.500166
											CHANNELS 3 Xrotation Yrotation Zrotation
											JOINT mixamorig:RightHandThumb4
											{
												OFFSET -4.792618 -2.767029 2.767022
												CHANNELS 3 Xrotation Yrotation Zrotation
												End Site
												{
													OFFSET -0.100327 6.053253 1.276754
												}
											}
										}
									}
								}
								JOINT mixamorig:RightHandIndex1
								{
									OFFSET -23.048981 -0.310791 4.992554
									CHANNELS 3 Xrotation Yrotation Zrotation
									JOINT mixamorig:RightHandIndex2
									{
										OFFSET -6.227539 0.000000 0.000000
										CHANNELS 3 Xrotation Yrotation Zrotation
										JOINT mixamorig:RightHandIndex3
										{
											OFFSET -6.095047 0.000000 0.000000
											CHANNELS 3 Xrotation Yrotation Zrotation
											JOINT mixamorig:RightHandIndex4
											{
												OFFSET -5.484772 0.000000 0.000000
												CHANNELS 3 Xrotation Yrotation Zrotation
												End Site
												{
													OFFSET 1.420593 5.237305 0.797056
												}
											}
										}
									}
								}
								JOINT mixamorig:RightHandRing1
								{
									OFFSET -22.246323 0.020569 -3.963762
									CHANNELS 3 Xrotation Yrotation Zrotation
									JOINT mixamorig:RightHandRing2
									{
										OFFSET -6.322128 0.000000 0.000000
										CHANNELS 3 Xrotation Yrotation Zrotation
										JOINT mixamorig:RightHandRing3
										{
											OFFSET -5.900024 0.000000 0.000000
											CHANNELS 3 Xrotation Yrotation Zrotation
											JOINT mixamorig:RightHandRing4
											{
												OFFSET -6.518356 0.000000 0.000000
												CHANNELS 3 Xrotation Yrotation Zrotation
												End Site
												{
													OFFSET 1.636398 6.232697 0.982186
												}
											}
										}
									}
								}
								JOINT mixamorig:RightHandPinky1
								{
									OFFSET -20.411011 -0.303314 -8.561701
									CHANNELS 3 Xrotation Yrotation Zrotation
									JOINT mixamorig:RightHandPinky2
									{
										OFFSET -6.907349 0.000000 0.000000
										CHANNELS 3 Xrotation Yrotation Zrotation
										JOINT mixamorig:RightHandPinky3
										{
											OFFSET -4.623840 0.000000 0.000000
											CHANNELS 3 Xrotation Yrotation Zrotation
											JOINT mixamorig:RightHandPinky4
											{
												OFFSET -5.218353 0.000000 0.000000
												CHANNELS 3 Xrotation Yrotation Zrotation
												End Site
												{
													OFFSET 0.602097 5.118835 0.816273
												}
											}
										}
									}
								}
							}
						}
					}
				}
			}
		}
	}
	JOINT mixamorig:LeftUpLeg
	{
		OFFSET 18.168400 -13.561905 -0.039000
		CHANNELS 3 Xrotation Yrotation Zrotation
		JOINT mixamorig:LeftLeg
		{
			OFFSET 0.577358 -80.825211 -3.695000
			CHANNELS 3 Xrotation Yrotation Zrotation
			JOINT mixamorig:LeftFoot
			{
				OFFSET -0.577356 -83.370262 -6.520700
				CHANNELS 3 Xrotation Yrotation Zrotation
				JOINT mixamorig:LeftToeBase
				{
					OFFSET 0.750401 -20.798306 25.135401
					CHANNELS 3 Xrotation Yrotation Zrotation
					JOINT mixamorig:LeftToe_End
					{
						OFFSET -0.000500 0.001200 19.917799
						CHANNELS 3 Xrotation Yrotation Zrotation
						End Site
						{
							OFFSET 0.000000 19.917805 0.000000
						}
					}
				}
			}
		}
	}
	JOINT mixamorig:RightUpLeg
	{
		OFFSET -18.162500 -13.585098 -0.041000
		CHANNELS 3 Xrotation Yrotation Zrotation
		JOINT mixamorig:RightLeg
		{
			OFFSET -0.595024 -80.945297 -3.631900
			CHANNELS 3 Xrotation Yrotation Zrotation
			JOINT mixamorig:RightFoot
			{
				OFFSET 0.595024 -83.218193 -6.561200
				CHANNELS 3 Xrotation Yrotation Zrotation
				JOINT mixamorig:RightToeBase
				{
					OFFSET -0.753601 -20.807106 25.115000
					CHANNELS 3 Xrotation Yrotation Zrotation
					JOINT mixamorig:RightToe_End
					{
						OFFSET 0.000299 0.001700 19.918200
						CHANNELS 3 Xrotation Yrotation Zrotation
						End Site
						{
							OFFSET 0.000000 19.918203 0.000000
						}
					}
				}
			}
		}
	}
}
MOTION
Frames: 4
Frame Time: 0.033333
21.448767 178.155243 -0.065716 -197.011711 -223.285550 -170.093813 3.093532 -28.000354 -14.261134 1.998013 -3.690595 10.720940 2.641553 -3.588733 10.633973 -0.299918 1.796812 1.269916 1.699747 11.197550 -3.178672 0.000000 0.000000 0.000001 0.000000 0.000000 0.000001 0.000000 0.000000 0.000001 1.327572 -12.881723 -0.791659 -24.952488 -20.256123 -42.129064 0.000002 -12.324013 0.000011 -71.593701 -5.806919 27.207266 -0.014713 -0.892077 -0.934633 0.034145 0.686259 -5.696237 0.033958 0.684340 -5.680247 -0.000000 0.000001 -0.000001 -9.855939 -0.738827 1.369826 7.134991 7.783246 -0.381102 5.216694 1.938856 1.873373 0.000000 0.000001 0.000002 0.988056 -5.010224 12.999817 0.070567 0.985235 -8.192716 0.009776 -0.367682 3.048188 0.000000 -0.000000 -0.000001 1.782901 6.353531 -18.665761 0.033955 0.684333 -5.680249 0.031322 0.657423 -5.456154 0.000001 -0.000001 0.000001 5.225773 17.133676 -17.310406 0.099209 -2.847018 -10.567853 0.131217 1.340504 -11.180705 0.000001 0.000002 0.000004 -0.340895 -8.311460 0.634613 -10.588870 -28.406012 35.469282 0.000271 100.952149 -0.000320 12.803252 23.383352 5.079767 0.126481 1.832011 -4.592297 0.068967 -0.978859 8.059481 0.004795 -0.258750 2.123901 0.000003 0.000001 -0.000002 -0.381270 -26.053765 -24.636678 4.662197 -5.217332 1.084935 -3.092337 0.815142 -2.809954 -0.000002 -0.000003 0.000001 1.838516 10.201671 -10.403695 -0.000006 0.000009 0.000047 0.036774 -0.715643 5.882932 -0.000000 -0.000000 -0.000001 0.088434 -1.219630 5.822069 0.448840 -2.462086 20.660293 0.004793 -0.258766 2.123892 0.000001 0.000001 -0.000002 0.729738 -3.247804 19.665322 0.000010 -0.007089 0.058201 0.006861 -0.309563 2.540922 -0.000001 0.000001 -0.000000 -16.399050 8.846535 19.346366 83.877824 -8.256139 -9.274693 3.285507 -2.784129 -3.025721 -4.321623 -0.000000 -0.000007 0.000001 -0.000000 -0.000001 -19.219483 -2.298442 20.325760 44.372027 -9.746716 4.775284 -14.882823 -1.791179 -19.044137 -0.909792 0.000005 -0.000000 -0.000000 0.000000 0.000000 
23.401857 176.881454 0.321022 -196.489584 -217.774107 -171.603913 4.140892 -28.015448 -14.023002 2.471605 -3.666665 11.824809 3.172569 -3.534776 11.715486 -0.761438 3.177842 0.449112 2.495183 17.256891 -5.890743 0.000000 0.000001 -0.000000 0.000000 0.000001 -0.000000 0.000000 0.000001 -0.000000 1.120226 -12.903986 -3.293189 -17.520233 -13.985362 -40.230074 0.000000 -12.996241 0.000006 -70.568907 -2.552889 25.557019 -0.013422 -0.924382 -0.835606 0.033457 0.679259 -5.637937 0.033238 0.677329 -5.621949 -0.000000 0.000001 -0.000003 -9.849952 -0.590507 0.870886 7.050677 7.705340 -0.069379 5.183619 1.806134 1.941048 0.000001 0.000001 0.000002 1.037019 -5.120692 13.350502 0.070572 0.985234 -8.192715 0.022411 -0.556376 4.615469 -0.000002 -0.000001 -0.000001 1.736865 6.504719 -17.485890 0.033258 0.677336 -5.621942 0.030798 0.651961 -5.410736 -0.000001 0.000000 0.000003 4.871791 17.739565 -15.424988 0.098220 -2.852237 -10.523878 0.134361 1.356291 -11.314341 -0.000002 0.000001 -0.000001 0.042221 -8.433525 4.409106 -8.020841 -21.641588 39.503451 0.000092 109.107047 -0.000086 12.529931 22.757415 3.718154 -0.013198 0.117978 -4.661354 0.068961 -0.978851 8.059486 0.004347 -0.246462 2.022798 0.000002 0.000000 0.000002 -1.157491 -25.812342 -25.656871 4.662194 -5.217337 1.084926 -3.094286 0.825509 -2.807681 0.000000 -0.000000 0.000000 1.085928 6.348601 -10.501335 0.000002 -0.000008 0.000007 0.035935 -0.707459 5.815443 0.000004 0.000002 -0.000002 0.088445 -1.219724 5.822365 0.448868 -2.462160 20.660776 0.004356 -0.246455 2.022804 0.000003 -0.000000 0.000000 0.729817 -3.247981 19.666227 -0.000002 0.000003 0.000003 0.005658 -0.280919 2.305726 0.000000 -0.000000 0.000001 -24.142270 9.327270 21.808468 90.884594 -5.372049 -1.973347 0.859258 0.635223 7.303839 -5.664145 -0.000004 -0.000000 -0.000000 -0.000001 -0.000001 -18.543540 -1.184529 21.338308 47.034021 -9.715051 4.601958 -16.103556 2.407543 -18.745155 -0.303936 0.000007 0.000002 -0.000000 0.000002 0.000000 
25.378450 175.968475 0.589611 -196.144414 -211.557473 -172.393155 5.718200 -27.944681 -13.782134 2.533089 -3.679761 12.602871 3.276601 -3.512011 12.497696 -1.238624 4.664457 -0.754696 3.671885 23.013720 -8.078413 -0.000001 0.000000 0.000001 -0.000001 0.000000 0.000001 -0.000001 0.000000 0.000001 0.850944 -11.496726 -5.966767 -11.067323 -7.223929 -39.021554 0.000001 -12.208071 0.000001 -71.136564 -1.036502 27.977650 -0.012741 -0.938103 -0.789396 0.033123 0.676005 -5.610839 0.032937 0.674083 -5.594848 -0.000000 0.000002 -0.000000 -9.845865 -0.511511 0.608430 6.994006 7.650220 0.194049 5.193401 1.848236 1.924620 0.000001 0.000002 0.000001 1.059051 -5.167148 13.514079 0.071683 0.992892 -8.256838 0.029525 -0.638410 5.297852 -0.000001 -0.000000 -0.000000 1.732937 6.747739 -16.559020 0.032944 0.674086 -5.594838 0.030569 0.649424 -5.389617 -0.000002 0.000002 0.000003 4.653583 18.533457 -13.941794 0.097619 -2.855456 -10.496756 0.137835 1.373552 -11.460213 0.000000 -0.000000 0.000002 0.427769 -7.568994 8.003605 -5.995348 -12.442529 41.336452 -0.000015 114.456506 0.000021 11.112568 21.667570 2.992381 -0.133433 -1.392685 -4.688089 0.068963 -0.978867 8.059488 0.003168 -0.210069 1.723991 0.000000 0.000000 -0.000002 -2.721611 -25.325985 -27.935692 4.662190 -5.217330 1.084935 -3.092456 0.822804 -2.808378 0.000004 0.000000 0.000003 0.433708 2.953187 -10.553914 0.000005 -0.000009 -0.000011 0.033505 -0.683258 5.615950 -0.000002 0.000000 0.000002 0.088795 -1.207685 6.010455 0.461237 -2.494700 20.947077 0.003165 -0.210068 1.724006 -0.000002 0.000003 -0.000000 0.741612 -3.254955 20.210940 0.000241 -0.057363 0.470656 0.006219 -0.294723 2.419125 0.000003 -0.000001 0.000001 -28.351135 7.410915 21.451681 92.746995 -2.371927 3.039857 -4.717584 2.276874 12.797462 -6.373908 -0.000004 0.000012 -0.000001 -0.000001 0.000002 -18.192349 1.704521 22.033951 49.557834 -9.481461 4.753438 -17.285943 5.297403 -18.485565 -0.380680 -0.000010 0.000001 -0.000000 0.000000 0.000000 
27.508316 176.198730 0.971436 -195.172218 -204.632468 -173.206617 6.273951 -27.308423 -12.722610 2.456211 -3.630512 12.092835 3.153373 -3.461199 11.997569 -1.679104 5.912816 -1.199305 4.796072 28.344455 -9.010328 -0.000000 -0.000001 -0.000000 -0.000000 -0.000001 -0.000000 -0.000000 -0.000001 -0.000000 0.746457 -9.605004 -6.751651 -4.877735 1.396087 -40.410760 -0.000001 -12.705211 -0.000010 -70.530261 -0.566604 28.602812 -0.012914 -0.945294 -0.793664 0.033134 0.676238 -5.612759 0.032986 0.674315 -5.596766 -0.000001 -0.000000 -0.000000 -9.836706 -0.455436 0.422200 6.960323 7.615727 0.399409 5.229420 1.990623 1.858729 0.000002 0.000002 -0.000000 1.064727 -5.193900 13.499422 0.080778 1.053753 -8.766955 0.026071 -0.599838 4.976918 -0.000002 -0.000001 -0.000002 1.723362 7.012537 -15.605741 0.032977 0.674322 -5.596769 0.030594 0.649615 -5.391108 -0.000001 -0.000002 0.000001 4.392919 19.384307 -12.406619 0.097631 -2.855471 -10.496737 0.142232 1.395066 -11.642161 -0.000004 0.000001 -0.000001 0.785268 -6.159929 12.023080 -4.975876 -1.660685 40.517529 0.000105 115.948253 -0.000111 9.270140 20.099565 1.452206 -0.212072 -2.426186 -4.675030 0.068963 -0.978861 8.059472 0.002029 -0.168409 1.382022 -0.000001 -0.000001 0.000000 -4.616412 -23.861363 -30.685048 4.662195 -5.217324 1.084938 -3.078994 0.778959 -2.815711 -0.000002 -0.000001 -0.000001 -0.001925 0.630392 -10.546098 -0.000002 0.000001 0.000001 0.030843 -0.655572 5.387639 0.000005 0.000003 -0.000003 0.088359 -1.183019 6.300129 0.480587 -2.544590 21.386895 0.002019 -0.168404 1.382036 0.000003 -0.000001 -0.000000 0.755332 -3.256466 21.048744 0.004602 -0.253184 2.077885 0.007965 -0.333677 2.739179 -0.000001 -0.000000 -0.000001 -30.269445 4.089961 20.030052 90.692597 -2.252085 4.743087 -8.690055 2.433213 12.415617 -4.020440 0.000000 -0.000001 -0.000001 0.000001 -0.000001 -17.887202 5.499505 22.656142 50.476918 -7.453642 4.427674 -17.822340 5.885075 -18.590460 -0.889552 -0.000000 -0.000002 -0.000000 -0.000000 0.000000 
